<?xml version="1.0" encoding="iso-8859-1"?>
<!-- Uploaded to: SVG Repo, www.svgrepo.com, Generator: SVG Repo Mixer Tools -->
<svg fill="#ffffff" height="250px" width="250px" version="1.1" id="Layer_1" xmlns="http://www.w3.org/2000/svg" xmlns:xlink="http://www.w3.org/1999/xlink" 
	 viewBox="0 0 512.003 512.003" xml:space="preserve">
<g>
	<g>
		<path d="M264.553,175.3c-13.851,0-25.119,11.268-25.119,25.119s11.268,25.119,25.119,25.119c13.851,0,25.119-11.268,25.119-25.119
			S278.404,175.3,264.553,175.3z M264.553,209.505c-5.01,0-9.086-4.076-9.086-9.086s4.076-9.086,9.086-9.086
			s9.086,4.076,9.086,9.086S269.563,209.505,264.553,209.505z"/>
	</g>
</g>
<g>
	<g>
		<path d="M503.988,269.363h-0.924c-0.91-9.669-3.453-18.866-7.339-27.327c1.863-1.075,3.411-2.356,4.239-4.409
			c0.917-2.274,0.736-4.888-0.49-7.012c-1.201-2.08-3.316-3.533-5.688-3.909c-2.25-0.358-4.188,0.354-6.101,1.459
			c-5.508-7.724-12.271-14.486-19.995-19.995c1.081-1.872,1.79-3.758,1.478-5.962c-0.343-2.427-1.806-4.601-3.929-5.827
			c-2.081-1.201-4.639-1.404-6.883-0.543c-2.116,0.811-3.44,2.387-4.539,4.293c-8.46-3.887-17.656-6.431-27.326-7.339
			c0-2.144-0.34-4.121-1.7-5.859c-1.51-1.93-3.865-3.082-6.317-3.082c-2.402,0-4.718,1.105-6.231,2.972
			c-1.423,1.755-1.786,3.776-1.786,5.969c-6.348,0.596-12.49,1.901-18.357,3.821l-21.27-48.922l32.435-16.217h40.863
			c3.603,0,6.764-2.404,7.726-5.877c0.962-3.473-0.512-7.159-3.601-9.015l-42.756-25.654c-2.208-1.324-4.919-1.507-7.282-0.494
			l-44.068,18.886l-3.693-8.495c-0.035-0.091-0.065-0.183-0.104-0.274l-8.81-20.233l7.578-22.737
			c0.781-2.347,0.437-4.923-0.935-6.982l-17.102-25.654c-2.455-3.683-7.433-4.679-11.117-2.223
			c-3.683,2.456-4.68,7.433-2.223,11.117l14.927,22.391l-6.39,19.169l-6.409,3.944l-5.391-10.781
			c-1.921-3.841-6.528-5.486-10.444-3.732c-3.093,1.384-6.277,2.878-9.648,4.459c-19.464,9.131-43.687,20.495-72.589,20.495
			c-57.855,0-82.248-3.96-108.072-8.155l-1.81-0.293c-3.862-0.627-7.615,1.629-8.874,5.336c-1.259,3.707,0.343,7.779,3.79,9.636
			l102.7,55.3l-25.792,32.239h-9.929l-5.453-5.455l3.4-3.4c3.131-3.132,3.131-8.207,0-11.338l-54.419-54.42
			c-1.504-1.503-3.542-2.347-5.669-2.347c-2.127,0-4.164,0.844-5.669,2.347l-3.401,3.401l-3.401-3.401
			c-3.132-3.13-8.207-3.13-11.338,0c-3.131,3.132-3.131,8.207,0,11.338l3.401,3.401l-3.401,3.401
			c-1.504,1.503-2.348,3.541-2.348,5.667s0.844,4.164,2.347,5.669l54.42,54.419c3.089,3.088,8.249,3.088,11.338,0l3.4-3.4
			l7.802,7.802c1.504,1.503,3.542,2.347,5.669,2.347h9.086v5.004l-22.391,16.284c-4.299-4.862-9.144-9.226-14.441-13.002
			c1.081-1.872,1.79-3.758,1.478-5.962c-0.343-2.427-1.806-4.601-3.929-5.827c-2.081-1.201-4.639-1.403-6.883-0.543
			c-2.116,0.811-3.439,2.387-4.539,4.293c-8.46-3.887-17.656-6.431-27.327-7.339c0-2.144-0.34-4.121-1.7-5.859
			c-1.51-1.93-3.865-3.082-6.317-3.082c-2.403,0-4.718,1.105-6.231,2.972c-1.421,1.755-1.784,3.776-1.784,5.97
			c-9.669,0.91-18.866,3.453-27.326,7.339c-1.075-1.863-2.356-3.411-4.409-4.239c-2.274-0.917-4.888-0.736-7.012,0.49
			c-2.08,1.2-3.533,3.316-3.91,5.688c-0.358,2.25,0.355,4.187,1.459,6.1c-7.724,5.508-14.486,12.271-19.995,19.995
			c-1.872-1.081-3.758-1.79-5.962-1.479c-2.427,0.342-4.601,1.806-5.827,3.93c-1.201,2.081-1.401,4.638-0.542,6.882
			c0.811,2.116,2.386,3.44,4.292,4.54c-3.887,8.46-6.43,17.656-7.339,27.326c-2.144,0-4.121,0.34-5.859,1.7
			C1.151,272.573,0,274.928,0,277.38c0,2.403,1.105,4.718,2.972,6.231c1.755,1.423,3.775,1.786,5.969,1.786
			c0.91,9.669,3.454,18.866,7.339,27.325c-1.735,1.002-3.205,2.159-4.073,4.023c-0.964,2.07-0.998,4.506-0.081,6.599
			c1.009,2.302,3.082,4.028,5.531,4.598c2.421,0.563,4.577-0.145,6.662-1.349c5.508,7.724,12.271,14.487,19.995,19.995
			c-1.006,1.743-1.709,3.486-1.527,5.544c0.201,2.275,1.389,4.402,3.23,5.755c2.219,1.631,5.184,2.01,7.74,0.988
			c2.063-0.825,3.352-2.378,4.431-4.249c8.46,3.887,17.656,6.431,27.326,7.339c0,2.144,0.34,4.121,1.7,5.859
			c1.51,1.93,3.865,3.082,6.317,3.082c2.403,0,4.718-1.105,6.231-2.971c1.423-1.755,1.786-3.776,1.786-5.969
			c9.669-0.91,18.866-3.453,27.326-7.339c1.08,1.87,2.368,3.424,4.431,4.249c2.556,1.022,5.521,0.643,7.74-0.988
			c1.841-1.353,3.029-3.48,3.23-5.755c0.182-2.059-0.522-3.802-1.527-5.544c7.724-5.508,14.486-12.271,19.995-19.995
			c2.085,1.205,4.24,1.913,6.662,1.349c2.449-0.57,4.521-2.295,5.531-4.598c0.917-2.093,0.883-4.529-0.081-6.599
			c-0.868-1.863-2.339-3.022-4.073-4.023c3.887-8.46,6.43-17.656,7.339-27.325c2.144,0,4.121-0.34,5.859-1.7
			c1.93-1.51,3.082-3.865,3.082-6.317c0-2.402-1.105-4.718-2.972-6.231c-1.755-1.423-3.775-1.786-5.969-1.786
			c-1.201-12.774-5.243-24.73-11.484-35.237l12.94-9.413v35.565c0,4.428,3.588,8.017,8.017,8.017h25.654
			c4.428,0,8.017-3.588,8.017-8.017v-9.086h34.739c32.712,0,59.324-26.612,59.324-59.324v-62.16l23.953-14.372l38.123,87.683
			c-11.154,6.186-20.767,14.811-28.138,25.146c-1.872-1.081-3.758-1.79-5.962-1.479c-2.427,0.342-4.601,1.806-5.827,3.93
			c-1.201,2.081-1.401,4.638-0.542,6.882c0.811,2.116,2.386,3.44,4.292,4.54c-3.886,8.46-6.43,17.656-7.339,27.327
			c-2.144,0-4.121,0.34-5.859,1.7c-1.93,1.51-3.082,3.865-3.082,6.317c0,2.403,1.105,4.718,2.972,6.231
			c1.755,1.423,3.775,1.786,5.969,1.786c0.91,9.669,3.454,18.866,7.339,27.325c-1.735,1.002-3.205,2.159-4.073,4.023
			c-0.964,2.07-0.998,4.506-0.081,6.599c1.009,2.302,3.082,4.028,5.531,4.598c2.421,0.563,4.577-0.145,6.662-1.349
			c5.508,7.724,12.271,14.487,19.995,19.995c-1.006,1.743-1.709,3.486-1.527,5.544c0.201,2.275,1.389,4.402,3.23,5.755
			c2.219,1.631,5.184,2.01,7.74,0.988c2.063-0.825,3.352-2.378,4.431-4.249c8.46,3.887,17.656,6.431,27.326,7.339
			c0,2.144,0.34,4.121,1.7,5.859c1.51,1.93,3.865,3.082,6.317,3.082c2.402,0,4.718-1.105,6.231-2.971
			c1.423-1.755,1.786-3.776,1.786-5.969c9.669-0.91,18.866-3.453,27.326-7.339c1.08,1.87,2.368,3.424,4.431,4.249
			c2.556,1.022,5.521,0.643,7.74-0.988c1.841-1.353,3.029-3.48,3.23-5.755c0.182-2.059-0.522-3.802-1.527-5.544
			c7.724-5.508,14.486-12.271,19.995-19.995c2.085,1.205,4.24,1.913,6.662,1.349c2.449-0.57,4.521-2.295,5.531-4.598
			c0.917-2.093,0.883-4.529-0.081-6.599c-0.868-1.863-2.339-3.022-4.073-4.023c3.887-8.46,6.431-17.656,7.339-27.325
			c1.993,0,3.847-0.274,5.522-1.448c1.828-1.282,3.067-3.313,3.351-5.529C512.543,273.687,508.767,269.363,503.988,269.363z
			 M147.949,176.128l-43.083-43.082l6.803-6.802l43.082,43.083L147.949,176.128z M93.529,346.324
			c-38.016,0-68.944-30.929-68.944-68.944c0-38.016,30.929-68.944,68.944-68.944c19.997,0,38.024,8.565,50.63,22.211l-7.844,5.705
			c-10.804-11.262-25.985-18.294-42.786-18.294c-32.712,0-59.324,26.612-59.324,59.324c0,32.712,26.612,59.324,59.324,59.324
			c32.712,0,59.324-26.612,59.324-59.324c0-10.154-2.567-19.717-7.083-28.081l7.829-5.693c5.64,9.988,8.874,21.506,8.874,33.773
			C162.473,315.396,131.544,346.324,93.529,346.324z M86.56,281.345c2.333,4.092,7.866,5.299,11.684,2.519l12.687-9.227
			c0.141,0.896,0.235,1.808,0.235,2.743c0,9.725-7.912,17.637-17.637,17.637c-9.725,0-17.637-7.912-17.637-17.637
			c0-9.725,7.912-17.637,17.637-17.637c2.871,0,5.575,0.704,7.973,1.926l-12.688,9.228C85.558,273.266,84.563,277.844,86.56,281.345
			z M93.529,243.71c-18.566,0-33.67,15.105-33.67,33.67s15.105,33.67,33.67,33.67c18.566,0,33.67-15.105,33.67-33.67
			c0-4.51-0.898-8.813-2.513-12.748l7.957-5.787c2.674,5.622,4.176,11.904,4.176,18.534c0,23.871-19.42,43.291-43.291,43.291
			s-43.291-19.419-43.291-43.289c0-23.871,19.42-43.291,43.291-43.291c11.473,0,21.909,4.495,29.664,11.804l-7.951,5.782
			C109.375,246.711,101.798,243.71,93.529,243.71z M153.397,103.176c17.101,1.596,38.343,2.646,68.4,2.646
			c32.477,0,58.495-12.206,79.399-22.013c0.816-0.383,1.619-0.76,2.414-1.132l2.551,5.105l-84.632,52.081L153.397,103.176z
			 M277.532,133.685c-3.797,2.279-5.028,7.202-2.75,10.999c2.28,3.797,7.202,5.028,10.999,2.75l13.512-8.108v52.54
			c0,23.871-19.42,43.291-43.291,43.291h-34.739V203.09l23.108-30.81l20.031-12.019c3.797-2.279,5.028-7.202,2.75-10.999
			c-2.28-3.799-7.203-5.028-10.999-2.75l-21.378,12.827c-0.889,0.534-1.667,1.235-2.29,2.065l-25.654,34.205
			c-1.041,1.387-1.603,3.075-1.603,4.81v51.842h-9.62V194.68l31.578-39.471l102.109-62.836l3.536,8.134L277.532,133.685z
			 M360.542,124.026l40.222-17.238l14.423,8.654h-13.813c-1.244,0-2.472,0.29-3.585,0.847l-33.358,16.679L360.542,124.026z
			 M394.167,241.578l3.924,9.026c-8.068,6.157-13.288,15.867-13.288,26.776c0.001,18.566,15.106,33.67,33.672,33.67
			c18.566,0,33.67-15.105,33.67-33.67c0-18.566-15.105-33.67-33.67-33.67c-1.938,0-3.835,0.174-5.684,0.49l-3.923-9.022
			c3.092-0.703,6.305-1.088,9.607-1.088c23.871,0,43.291,19.42,43.291,43.291c0,23.871-19.42,43.291-43.291,43.291
			s-43.291-19.42-43.291-43.291C375.185,262.514,382.719,249.376,394.167,241.578z M425.827,274.184l-6.254-14.385
			c9.213,0.571,16.539,8.227,16.539,17.581c0,9.725-7.912,17.637-17.637,17.637c-9.725,0-17.637-7.912-17.637-17.637
			c0-4.25,1.511-8.154,4.026-11.202l6.26,14.398c1.834,4.218,7.013,6.038,11.088,3.897
			C425.876,282.547,427.477,277.979,425.827,274.184z M418.475,346.324c-38.016,0-68.944-30.929-68.944-68.944
			c0-25.393,13.809-47.608,34.302-59.571l3.859,8.876c-17.099,10.422-28.541,29.246-28.541,50.695
			c0,32.712,26.612,59.324,59.324,59.324s59.324-26.612,59.324-59.324c0-32.712-26.612-59.324-59.324-59.324
			c-5.573,0-10.963,0.789-16.081,2.233l-3.869-8.899c6.319-1.914,13.014-2.954,19.95-2.954c38.016,0,68.944,30.929,68.944,68.944
			C487.42,315.396,456.491,346.324,418.475,346.324z"/>
	</g>
</g>
<g>
	<g>
		<path d="M282.725,158.197h-1.069c-4.428,0-8.017,3.588-8.017,8.017s3.588,8.017,8.017,8.017h1.069
			c4.428,0,8.017-3.588,8.017-8.017S287.153,158.197,282.725,158.197z"/>
	</g>
</g>
<g>
	<g>
		<path d="M231.417,218.056h-1.069c-4.428,0-8.017,3.588-8.017,8.017s3.588,8.017,8.017,8.017h1.069
			c4.428,0,8.017-3.588,8.017-8.017S235.846,218.056,231.417,218.056z"/>
	</g>
</g>
<g>
	<g>
		<path d="M501.099,417.08l-34.205-34.205c-3.132-3.13-8.207-3.13-11.338,0l-28.53,28.538l-28.535-28.536
			c-3.132-3.13-8.207-3.13-11.338,0l-28.537,28.536l-28.535-28.536c-3.132-3.13-8.207-3.13-11.338,0l-28.536,28.536l-28.535-28.536
			c-3.132-3.13-8.207-3.13-11.338,0l-28.536,28.536l-28.535-28.536c-3.132-3.13-8.207-3.13-11.338,0l-28.536,28.536l-28.535-28.536
			c-3.132-3.13-8.207-3.13-11.338,0l-28.536,28.536l-28.535-28.536c-3.132-3.13-8.207-3.13-11.338,0L10.9,417.081
			c-3.131,3.132-3.131,8.207,0,11.338c3.131,3.13,8.206,3.13,11.338,0l28.535-28.536l28.535,28.536c3.132,3.13,8.207,3.13,11.338,0
			l28.535-28.536l28.535,28.536c3.132,3.13,8.207,3.13,11.338,0l28.535-28.536l28.535,28.536c3.132,3.13,8.207,3.13,11.338,0
			l28.535-28.536l28.535,28.536c3.132,3.13,8.207,3.13,11.338,0l28.535-28.536l28.535,28.536c3.132,3.13,8.207,3.13,11.338,0
			l28.535-28.536l28.535,28.536c3.132,3.13,8.207,3.13,11.338,0l28.535-28.536l28.535,28.536c3.261,3.259,8.767,3.042,11.764-0.461
			C504.211,424.82,504.017,419.999,501.099,417.08z"/>
	</g>
</g>
<g>
	<g>
		<path d="M501.099,476.939l-34.198-34.204c-3.132-3.13-8.207-3.13-11.338,0l-28.536,28.536l-28.535-28.536
			c-3.132-3.13-8.207-3.13-11.338,0l-28.537,28.536l-28.535-28.536c-3.132-3.13-8.207-3.13-11.338,0l-28.536,28.536l-28.535-28.536
			c-3.132-3.13-8.207-3.13-11.338,0l-28.536,28.536l-28.535-28.536c-3.132-3.13-8.207-3.13-11.338,0l-28.536,28.536l-28.535-28.536
			c-3.132-3.13-8.207-3.13-11.338,0l-28.536,28.536l-28.535-28.536c-3.132-3.13-8.207-3.13-11.338,0L10.9,476.94
			c-3.131,3.132-3.131,8.207,0,11.338c3.132,3.13,8.207,3.13,11.338,0l28.535-28.536l28.535,28.536c3.132,3.13,8.207,3.13,11.338,0
			l28.535-28.536l28.535,28.536c3.132,3.13,8.207,3.13,11.338,0l28.535-28.536l28.535,28.536c3.132,3.13,8.207,3.13,11.338,0
			l28.535-28.536l28.535,28.536c3.132,3.13,8.207,3.13,11.338,0l28.535-28.536l28.535,28.536c3.132,3.13,8.207,3.13,11.338,0
			l28.535-28.536l28.535,28.536c3.132,3.13,8.207,3.13,11.338,0l28.535-28.536l28.535,28.536c3.261,3.259,8.767,3.042,11.764-0.461
			C504.211,484.679,504.017,479.858,501.099,476.939z"/>
	</g>
</g>
</svg>